<svg width="35" height="35" viewBox="0 0 35 35" fill="none" xmlns="http://www.w3.org/2000/svg">
<rect width="35" height="35" rx="17.5" fill="#FAFAFA"/>
<path d="M11.2812 29C9.79688 29 9.0625 28.1719 9.0625 26.9844C9.0625 26.0938 9.40625 25.5 10.3594 24.625L17.0781 18.2031C19.8594 15.5312 20.5781 14.4375 20.5781 12.8125C20.5781 10.9531 19.1406 9.625 17.125 9.625C15.3125 9.625 14.0625 10.5312 13.25 12.3438C12.7188 13.2812 12.1719 13.7188 11.1562 13.7188C9.89062 13.7188 9.14062 12.9688 9.14062 11.7969C9.14062 11.4375 9.20312 11.1094 9.3125 10.7812C10.0781 8.28125 12.9062 5.95312 17.1719 5.95312C21.9531 5.95312 25.1719 8.64062 25.1719 12.5156C25.1719 15.2656 23.8281 16.9844 20.1406 20.4688L15.2656 25.1562V25.25H23.7656C24.9844 25.25 25.7188 25.9844 25.7188 27.125C25.7188 28.2344 24.9844 29 23.7656 29H11.2812Z" fill="#AFB3BE"/>
</svg>
