<svg width="35" height="35" viewBox="0 0 35 35" fill="none" xmlns="http://www.w3.org/2000/svg">
<rect width="35" height="35" rx="17.5" fill="#FAFAFA"/>
<path d="M16.9688 29.5C12.6719 29.5 10.0312 27.6406 8.96875 25.4219C8.71875 24.9062 8.60938 24.4062 8.60938 23.9375C8.60938 22.7188 9.39062 21.9531 10.6875 21.9531C11.625 21.9531 12.2188 22.3281 12.6875 23.1875C13.4844 24.7656 14.7031 25.7031 17.0469 25.7031C19.3594 25.7031 20.9531 24.3594 20.9531 22.4844C20.9688 20.2969 19.3594 19.0781 16.625 19.0781H15.6406C14.5 19.0781 13.8438 18.4062 13.8438 17.3906C13.8438 16.4062 14.5 15.7188 15.6406 15.7188H16.5625C18.9219 15.7188 20.4531 14.4375 20.4531 12.5938C20.4531 10.7812 19.2344 9.57812 16.9531 9.57812C15.0469 9.57812 13.8906 10.375 13.1562 11.9688C12.6406 13.0312 12.0938 13.4219 11.0312 13.4219C9.71875 13.4219 9.04688 12.6562 9.04688 11.5156C9.04688 10.9844 9.15625 10.5312 9.39062 10C10.3906 7.79688 12.9531 5.95312 16.9375 5.95312C21.7031 5.95312 24.9219 8.3125 24.9219 11.9219C24.9219 14.7812 22.875 16.6562 20.2188 17.2031V17.2969C23.5781 17.6094 25.75 19.5781 25.75 22.6875C25.75 26.7812 22.2031 29.5 16.9688 29.5Z" fill="#AFB3BE"/>
</svg>
