<svg width="19" height="19" viewBox="0 0 19 19" fill="none" xmlns="http://www.w3.org/2000/svg">
<path d="M15.8337 7.91683C15.8337 11.8696 11.4486 15.9863 9.97612 17.2577C9.83894 17.3609 9.67196 17.4166 9.50033 17.4166C9.32869 17.4166 9.16171 17.3609 9.02453 17.2577C7.55203 15.9863 3.16699 11.8696 3.16699 7.91683C3.16699 6.23713 3.83425 4.62622 5.02198 3.43849C6.20971 2.25076 7.82062 1.5835 9.50033 1.5835C11.18 1.5835 12.7909 2.25076 13.9787 3.43849C15.1664 4.62622 15.8337 6.23713 15.8337 7.91683Z" stroke="#FAFAFA" stroke-width="2" stroke-linecap="round" stroke-linejoin="round"/>
<path d="M9.50033 10.2918C10.812 10.2918 11.8753 9.22851 11.8753 7.91683C11.8753 6.60515 10.812 5.54183 9.50033 5.54183C8.18865 5.54183 7.12533 6.60515 7.12533 7.91683C7.12533 9.22851 8.18865 10.2918 9.50033 10.2918Z" stroke="#FAFAFA" stroke-width="2" stroke-linecap="round" stroke-linejoin="round"/>
</svg>
