<svg width="58" height="56" viewBox="0 0 58 56" fill="none" xmlns="http://www.w3.org/2000/svg">
<path d="M47.875 27.4505C44.7233 26.5846 41.537 28.2991 40.9809 30.4274C40.4237 32.5563 43.4291 31.5335 46.5802 32.3994C49.7314 33.2653 51.8351 35.6895 52.3912 33.5607C52.9484 31.4324 51.0255 28.3159 47.875 27.4505ZM50.3142 26.46C51.2628 26.8129 52.6815 25.2747 53.1873 23.8505C53.6932 22.4262 53.3336 20.9847 52.3845 20.6307C51.4348 20.2762 50.2556 21.1438 49.7498 22.568C49.244 23.9923 49.3646 26.1055 50.3142 26.46ZM46.4401 25.3585C47.4467 25.4489 48.4283 23.5864 48.5567 22.0767C48.6851 20.567 47.9743 19.2695 46.9677 19.1791C45.9611 19.0897 45.041 20.2399 44.9109 21.7501C44.7825 23.2603 45.4335 25.268 46.4401 25.3585ZM41.9887 27.1429C42.9998 27.1429 43.8183 25.2005 43.8183 23.6841C43.8183 22.1688 42.9992 20.9405 41.9887 20.9405C40.9781 20.9405 40.1591 22.1688 40.1591 23.6852C40.1591 25.2005 40.9792 27.1429 41.9887 27.1429ZM56.1481 24.8281C55.2726 24.3105 53.9639 24.9543 53.2247 26.2669C52.4855 27.5795 52.2471 29.6821 53.1209 30.1996C53.9963 30.7172 55.654 29.4543 56.3932 28.1423C57.1324 26.8302 57.0224 25.3457 56.1481 24.8281Z" fill="black"/>
<path d="M3.9075 23.7784V22.4838H12.9465V23.7784H9.15669V34.5357H7.69728V23.7784H3.9075ZM16.3993 29.0982V34.5357H15.0105V22.4838H16.3993V26.9091H16.517C16.7289 26.4422 17.0467 26.0715 17.4704 25.7969C17.898 25.5183 18.4668 25.379 19.1769 25.379C19.7929 25.379 20.3323 25.5026 20.7952 25.7498C21.2582 25.993 21.6171 26.3677 21.8721 26.8738C22.1311 27.3759 22.2605 28.0154 22.2605 28.7922V34.5357H20.8717V28.8864C20.8717 28.1684 20.6854 27.6133 20.3127 27.221C19.9439 26.8247 19.4319 26.6266 18.7768 26.6266C18.3217 26.6266 17.9137 26.7227 17.5527 26.915C17.1957 27.1072 16.9133 27.3877 16.7053 27.7565C16.5013 28.1253 16.3993 28.5725 16.3993 29.0982ZM28.591 34.724C27.7201 34.724 26.9688 34.5318 26.3372 34.1473C25.7095 33.7589 25.225 33.2175 24.8837 32.5231C24.5463 31.8248 24.3776 31.0127 24.3776 30.0868C24.3776 29.161 24.5463 28.345 24.8837 27.6388C25.225 26.9287 25.6997 26.3755 26.3078 25.9793C26.9198 25.5791 27.6338 25.379 28.4498 25.379C28.9206 25.379 29.3855 25.4575 29.8445 25.6144C30.3035 25.7714 30.7213 26.0264 31.0979 26.3795C31.4746 26.7286 31.7747 27.1915 31.9983 27.7683C32.2219 28.345 32.3337 29.055 32.3337 29.8985V30.487H25.3662V29.2865H30.9214C30.9214 28.7765 30.8194 28.3214 30.6154 27.9213C30.4153 27.5211 30.1289 27.2053 29.7562 26.9738C29.3874 26.7423 28.952 26.6266 28.4498 26.6266C27.8966 26.6266 27.418 26.7639 27.0139 27.0385C26.6138 27.3092 26.3058 27.6623 26.09 28.0978C25.8743 28.5333 25.7664 29.0001 25.7664 29.4984V30.2987C25.7664 30.9813 25.8841 31.56 26.1195 32.0347C26.3588 32.5055 26.6903 32.8644 27.114 33.1116C27.5377 33.3548 28.03 33.4765 28.591 33.4765C28.9559 33.4765 29.2854 33.4255 29.5797 33.3234C29.8778 33.2175 30.1348 33.0606 30.3506 32.8527C30.5664 32.6408 30.7331 32.378 30.8508 32.0641L32.1925 32.4407C32.0513 32.8958 31.8139 33.296 31.4805 33.6412C31.147 33.9825 30.7351 34.2493 30.2447 34.4415C29.7543 34.6299 29.2031 34.724 28.591 34.724Z" fill="black"/>
<path d="M16.0653 49.0357V36.9838H20.8202C21.7343 36.9838 22.513 37.1583 23.1564 37.5075C23.7998 37.8527 24.2902 38.3333 24.6276 38.9493C24.9689 39.5613 25.1396 40.2674 25.1396 41.0678C25.1396 41.8681 24.967 42.5743 24.6217 43.1863C24.2765 43.7983 23.7763 44.2749 23.1211 44.6163C22.4699 44.9576 21.6813 45.1282 20.7554 45.1282H17.7248V43.0862H20.3435C20.8339 43.0862 21.238 43.0019 21.5558 42.8332C21.8775 42.6606 22.1168 42.4232 22.2737 42.1211C22.4346 41.8151 22.515 41.464 22.515 41.0678C22.515 40.6676 22.4346 40.3184 22.2737 40.0203C22.1168 39.7182 21.8775 39.4848 21.5558 39.32C21.2341 39.1513 20.8261 39.067 20.3317 39.067H18.6134V49.0357H16.0653ZM27.4802 49.0357H24.7497L28.9102 36.9838H32.1939L36.3485 49.0357H33.618L30.5991 39.7378H30.505L27.4802 49.0357ZM27.3096 44.2985H33.7593V46.2875H27.3096V44.2985ZM39.2983 49.0357L35.8498 36.9838H38.6333L40.6282 45.3577H40.7283L42.9291 36.9838H45.3125L47.5075 45.3754H47.6134L49.6083 36.9838H52.3918L48.9434 49.0357H46.46L44.1649 41.156H44.0708L41.7816 49.0357H39.2983Z" fill="black"/>
<path d="M1.45942 19V6.94805H2.91883V12.3149H9.34497V6.94805H10.8044V19H9.34497V13.6096H2.91883V19H1.45942ZM17.2099 19.1883C16.3939 19.1883 15.6779 18.9941 15.062 18.6057C14.45 18.2173 13.9714 17.674 13.6261 16.9756C13.2848 16.2773 13.1141 15.4613 13.1141 14.5276C13.1141 13.586 13.2848 12.7641 13.6261 12.0619C13.9714 11.3596 14.45 10.8143 15.062 10.4259C15.6779 10.0375 16.3939 9.84334 17.2099 9.84334C18.0259 9.84334 18.74 10.0375 19.352 10.4259C19.9679 10.8143 20.4465 11.3596 20.7878 12.0619C21.1331 12.7641 21.3057 13.586 21.3057 14.5276C21.3057 15.4613 21.1331 16.2773 20.7878 16.9756C20.4465 17.674 19.9679 18.2173 19.352 18.6057C18.74 18.9941 18.0259 19.1883 17.2099 19.1883ZM17.2099 17.9407C17.8298 17.9407 18.3398 17.7819 18.74 17.4641C19.1401 17.1463 19.4363 16.7285 19.6286 16.2106C19.8208 15.6928 19.9169 15.1318 19.9169 14.5276C19.9169 13.9234 19.8208 13.3605 19.6286 12.8387C19.4363 12.3169 19.1401 11.8952 18.74 11.5735C18.3398 11.2518 17.8298 11.0909 17.2099 11.0909C16.5901 11.0909 16.0801 11.2518 15.6799 11.5735C15.2797 11.8952 14.9835 12.3169 14.7913 12.8387C14.5991 13.3605 14.5029 13.9234 14.5029 14.5276C14.5029 15.1318 14.5991 15.6928 14.7913 16.2106C14.9835 16.7285 15.2797 17.1463 15.6799 17.4641C16.0801 17.7819 16.5901 17.9407 17.2099 17.9407ZM24.8145 6.94805V19H23.4257V6.94805H24.8145ZM30.7713 19.1883C30.0181 19.1883 29.3531 18.998 28.7764 18.6175C28.1997 18.233 27.7485 17.6916 27.4229 16.9933C27.0973 16.2911 26.9345 15.4613 26.9345 14.5041C26.9345 13.5547 27.0973 12.7308 27.4229 12.0325C27.7485 11.3341 28.2016 10.7947 28.7823 10.4142C29.3629 10.0336 30.0338 9.84334 30.7948 9.84334C31.3833 9.84334 31.8482 9.94142 32.1895 10.1376C32.5348 10.3298 32.7976 10.5495 32.9781 10.7967C33.1625 11.0399 33.3057 11.24 33.4077 11.3969H33.5254V6.94805H34.9142V19H33.5724V17.6112H33.4077C33.3057 17.776 33.1605 17.9839 32.9722 18.235C32.7839 18.4821 32.5152 18.7038 32.166 18.9C31.8168 19.0922 31.3519 19.1883 30.7713 19.1883ZM30.9596 17.9407C31.5167 17.9407 31.9875 17.7956 32.372 17.5053C32.7564 17.211 33.0487 16.805 33.2488 16.2871C33.4489 15.7654 33.5489 15.1631 33.5489 14.4805C33.5489 13.8057 33.4508 13.2153 33.2547 12.7092C33.0585 12.1992 32.7682 11.803 32.3837 11.5205C31.9993 11.2341 31.5246 11.0909 30.9596 11.0909C30.3711 11.0909 29.8808 11.2419 29.4884 11.544C29.1 11.8422 28.8078 12.2482 28.6116 12.7622C28.4194 13.2722 28.3233 13.845 28.3233 14.4805C28.3233 15.1239 28.4213 15.7085 28.6175 16.2342C28.8176 16.756 29.1118 17.1718 29.5002 17.4817C29.8925 17.7877 30.379 17.9407 30.9596 17.9407Z" fill="black"/>
</svg>
