<svg width="44" height="42" viewBox="0 0 44 42" fill="none" xmlns="http://www.w3.org/2000/svg">
<g clip-path="url(#clip0_10764_329)">
<path d="M34.5419 20.3194C32.2782 19.6922 29.9897 20.9341 29.5903 22.4757C29.1901 24.0177 31.3487 23.2768 33.6119 23.904C35.8752 24.5312 37.3862 26.2871 37.7856 24.7452C38.1858 23.2036 36.8047 20.9462 34.5419 20.3194ZM36.2939 19.602C36.9752 19.8576 37.9941 18.7435 38.3574 17.7118C38.7207 16.6802 38.4625 15.6361 37.7808 15.3797C37.0987 15.1229 36.2518 15.7513 35.8884 16.7829C35.5251 17.8146 35.6118 19.3452 36.2939 19.602ZM33.5113 18.8041C34.2343 18.8696 34.9393 17.5206 35.0315 16.4271C35.1237 15.3336 34.6133 14.3937 33.8902 14.3282C33.1672 14.2635 32.5064 15.0966 32.4129 16.1905C32.3207 17.2844 32.7883 18.7386 33.5113 18.8041ZM30.3141 20.0966C31.0403 20.0966 31.6282 18.6897 31.6282 17.5913C31.6282 16.4938 31.0399 15.6041 30.3141 15.6041C29.5883 15.6041 29 16.4938 29 17.5921C29 18.6897 29.5891 20.0966 30.3141 20.0966ZM40.484 18.42C39.8552 18.0451 38.9152 18.5113 38.3843 19.4621C37.8534 20.4128 37.6821 21.9358 38.3097 22.3107C38.9385 22.6856 40.1291 21.7708 40.66 20.8205C41.1909 19.8701 41.1119 18.7948 40.484 18.42Z" fill="#FAFAFA"/>
</g>
<path d="M2.98526 17.9402V16.9246H10.0762V17.9402H7.10316V26.3792H5.95827V17.9402H2.98526ZM12.7849 22.1135V26.3792H11.6954V16.9246H12.7849V20.3962H12.8772C13.0434 20.03 13.2927 19.7391 13.6251 19.5237C13.9606 19.3052 14.4068 19.1959 14.9639 19.1959C15.4471 19.1959 15.8702 19.2929 16.2334 19.4867C16.5966 19.6776 16.8782 19.9715 17.0782 20.3685C17.2813 20.7624 17.3829 21.2641 17.3829 21.8735V26.3792H16.2934V21.9473C16.2934 21.3841 16.1472 20.9486 15.8548 20.6409C15.5655 20.33 15.1639 20.1746 14.6499 20.1746C14.2929 20.1746 13.9729 20.25 13.6897 20.4008C13.4097 20.5516 13.1881 20.7717 13.0249 21.061C12.8649 21.3503 12.7849 21.7011 12.7849 22.1135ZM22.3491 26.5269C21.6658 26.5269 21.0765 26.3761 20.581 26.0745C20.0885 25.7698 19.7085 25.3451 19.4407 24.8003C19.176 24.2525 19.0437 23.6154 19.0437 22.8891C19.0437 22.1628 19.176 21.5226 19.4407 20.9686C19.7085 20.4116 20.0808 19.9776 20.5579 19.6668C21.038 19.3529 21.5981 19.1959 22.2383 19.1959C22.6076 19.1959 22.9723 19.2575 23.3324 19.3806C23.6925 19.5037 24.0202 19.7037 24.3157 19.9807C24.6112 20.2546 24.8466 20.6178 25.022 21.0702C25.1974 21.5226 25.2852 22.0797 25.2852 22.7414V23.203H19.8192V22.2613H24.1772C24.1772 21.8612 24.0972 21.5042 23.9371 21.1902C23.7802 20.8763 23.5555 20.6286 23.2631 20.447C22.9738 20.2654 22.6322 20.1746 22.2383 20.1746C21.8043 20.1746 21.4289 20.2823 21.1119 20.4978C20.7979 20.7101 20.5563 20.9871 20.3871 21.3287C20.2178 21.6703 20.1332 22.0366 20.1332 22.4274V23.0553C20.1332 23.5908 20.2255 24.0448 20.4102 24.4171C20.5979 24.7865 20.858 25.0681 21.1903 25.262C21.5227 25.4528 21.909 25.5482 22.3491 25.5482C22.6353 25.5482 22.8938 25.5082 23.1246 25.4282C23.3585 25.3451 23.5601 25.222 23.7294 25.0588C23.8987 24.8926 24.0295 24.6864 24.1218 24.4402L25.1744 24.7357C25.0636 25.0927 24.8774 25.4066 24.6158 25.6774C24.3542 25.9452 24.031 26.1545 23.6463 26.3053C23.2616 26.453 22.8292 26.5269 22.3491 26.5269Z" fill="#FAFAFA"/>
<path d="M12.2153 37V27.5455H15.9454C16.6625 27.5455 17.2734 27.6824 17.7781 27.9563C18.2829 28.2272 18.6676 28.6042 18.9323 29.0874C19.2 29.5675 19.3339 30.1214 19.3339 30.7493C19.3339 31.3771 19.1985 31.9311 18.9276 32.4112C18.6568 32.8913 18.2644 33.2653 17.7504 33.533C17.2396 33.8008 16.6209 33.9347 15.8946 33.9347H13.5171V32.3327H15.5715C15.9562 32.3327 16.2732 32.2666 16.5225 32.1342C16.7748 31.9988 16.9626 31.8126 17.0857 31.5756C17.2119 31.3356 17.2749 31.0601 17.2749 30.7493C17.2749 30.4354 17.2119 30.1615 17.0857 29.9276C16.9626 29.6906 16.7748 29.5075 16.5225 29.3782C16.2701 29.2459 15.95 29.1797 15.5622 29.1797H14.2142V37H12.2153ZM21.1701 37H19.0281L22.2919 27.5455H24.8679L28.1271 37H25.9851L23.6168 29.706H23.543L21.1701 37ZM21.0362 33.2837H26.0959V34.8441H21.0362V33.2837ZM30.4411 37L27.7359 27.5455H29.9195L31.4845 34.1147H31.5629L33.2895 27.5455H35.1592L36.8811 34.1286H36.9642L38.5292 27.5455H40.7128L38.0075 37H36.0594L34.259 30.8185H34.1851L32.3893 37H30.4411Z" fill="#FAFAFA"/>
<path d="M1.14489 15V5.54545H2.28977V9.75568H7.33097V5.54545H8.47585V15H7.33097V10.7713H2.28977V15H1.14489ZM13.5009 15.1477C12.8607 15.1477 12.2991 14.9954 11.8159 14.6907C11.3358 14.386 10.9603 13.9598 10.6895 13.4119C10.4217 12.8641 10.2878 12.224 10.2878 11.4915C10.2878 10.7528 10.4217 10.1081 10.6895 9.55717C10.9603 9.00627 11.3358 8.57848 11.8159 8.27379C12.2991 7.96911 12.8607 7.81676 13.5009 7.81676C14.141 7.81676 14.7012 7.96911 15.1813 8.27379C15.6645 8.57848 16.04 9.00627 16.3077 9.55717C16.5785 10.1081 16.714 10.7528 16.714 11.4915C16.714 12.224 16.5785 12.8641 16.3077 13.4119C16.04 13.9598 15.6645 14.386 15.1813 14.6907C14.7012 14.9954 14.141 15.1477 13.5009 15.1477ZM13.5009 14.169C13.9872 14.169 14.3873 14.0444 14.7012 13.7951C15.0151 13.5458 15.2475 13.218 15.3983 12.8118C15.5491 12.4055 15.6245 11.9654 15.6245 11.4915C15.6245 11.0175 15.5491 10.5759 15.3983 10.1665C15.2475 9.75722 15.0151 9.42637 14.7012 9.17401C14.3873 8.92164 13.9872 8.79545 13.5009 8.79545C13.0146 8.79545 12.6145 8.92164 12.3006 9.17401C11.9867 9.42637 11.7543 9.75722 11.6035 10.1665C11.4527 10.5759 11.3773 11.0175 11.3773 11.4915C11.3773 11.9654 11.4527 12.4055 11.6035 12.8118C11.7543 13.218 11.9867 13.5458 12.3006 13.7951C12.6145 14.0444 13.0146 14.169 13.5009 14.169ZM19.4665 5.54545V15H18.377V5.54545H19.4665ZM24.1396 15.1477C23.5487 15.1477 23.027 14.9985 22.5746 14.6999C22.1222 14.3983 21.7682 13.9736 21.5128 13.4258C21.2573 12.8749 21.1296 12.224 21.1296 11.473C21.1296 10.7282 21.2573 10.0819 21.5128 9.53409C21.7682 8.98627 22.1237 8.56309 22.5792 8.26456C23.0347 7.96603 23.561 7.81676 24.158 7.81676C24.6197 7.81676 24.9844 7.8937 25.2521 8.04759C25.523 8.19839 25.7292 8.37074 25.8707 8.56463C26.0154 8.75544 26.1277 8.91241 26.2077 9.03551H26.3001V5.54545H27.3896V15H26.337V13.9105H26.2077C26.1277 14.0398 26.0138 14.2029 25.8661 14.3999C25.7184 14.5937 25.5076 14.7676 25.2337 14.9215C24.9598 15.0723 24.5951 15.1477 24.1396 15.1477ZM24.2873 14.169C24.7243 14.169 25.0936 14.0552 25.3952 13.8274C25.6969 13.5966 25.9261 13.2781 26.0831 12.8718C26.2401 12.4625 26.3185 11.9901 26.3185 11.4545C26.3185 10.9252 26.2416 10.462 26.0877 10.065C25.9338 9.66489 25.7061 9.35405 25.4045 9.13246C25.1029 8.90779 24.7305 8.79545 24.2873 8.79545C23.8256 8.79545 23.4409 8.91394 23.1332 9.15092C22.8285 9.38482 22.5992 9.70336 22.4453 10.1065C22.2945 10.5066 22.2191 10.956 22.2191 11.4545C22.2191 11.9593 22.296 12.4179 22.4499 12.8303C22.6069 13.2396 22.8377 13.5658 23.1424 13.8089C23.4502 14.049 23.8318 14.169 24.2873 14.169Z" fill="#FAFAFA"/>
<defs>
<clipPath id="clip0_10764_329">
<rect width="12" height="12" fill="white" transform="translate(29 14)"/>
</clipPath>
</defs>
</svg>
